# Blender v2.81 (sub 16) OBJ File: 'breadloaf.blend'
# www.blender.org
mtllib breadloaf.mtl
o Bread_bread
v -0.000337 0.051125 0.972464
v -0.000337 0.051101 -0.972449
v -0.002417 0.619285 0.917183
v -0.002417 0.619233 -0.917119
v 0.000000 -0.460426 -1.000000
v 0.000000 -0.460422 1.000000
v -0.974597 0.043997 0.972464
v -0.920735 0.585098 0.917183
v -0.996113 -0.460435 1.000000
v -0.974594 0.043982 -0.972449
v -0.920730 0.585056 -0.917119
v -0.996110 -0.460439 -1.000000
v 0.985969 0.044190 -0.972449
v 0.927430 0.577335 -0.917119
v 1.003032 -0.460432 -1.000000
v 0.985974 0.044205 0.972464
v 0.927439 0.577373 0.917183
v 1.003036 -0.460428 1.000000
v 2.137279 0.070255 0.000035
v -2.040602 0.071080 0.000035
v 2.063834 0.620871 0.000086
v -2.021465 0.629126 0.000086
v -2.068519 -0.460679 0.000002
v 2.151873 -0.459522 0.000002
v -0.016884 1.756248 0.000118
v 0.000000 -0.937679 0.000000
v -0.999840 -0.937684 0.000000
v -1.038643 1.643302 0.000118
v 1.034100 1.611716 0.000118
v 1.010438 -0.937680 0.000000
v -2.017559 0.054120 -0.486202
v -1.998026 0.603127 -0.458508
v -2.050624 -0.463857 -0.499999
v 2.096426 0.054863 -0.486202
v 2.026210 0.598031 -0.458508
v 2.117878 -0.462906 -0.499999
v -0.013563 1.582574 -0.499905
v 0.000000 -0.938760 -0.500000
v -0.995398 -0.938766 -0.500000
v -1.029677 1.485030 -0.499905
v 1.027461 1.458717 -0.499905
v 1.001613 -0.938763 -0.500000
v 2.096429 0.054866 0.486254
v 2.026216 0.598036 0.458643
v 2.117887 -0.462905 0.500001
v -0.013563 1.582589 0.500095
v 0.000000 -0.938759 0.500000
v -0.995399 -0.938765 0.500000
v -1.029677 1.485042 0.500095
v 1.027460 1.458728 0.500095
v 1.001615 -0.938762 0.500000
v -2.017561 0.054125 0.486254
v -1.998029 0.603133 0.458643
v -2.050628 -0.463856 0.500001
v -0.009270 1.386055 0.813278
v -0.005858 1.029737 1.089286
v -1.006815 0.989476 1.047375
v -1.014922 1.313566 0.813278
v 1.007115 0.978556 1.047375
v 1.012359 1.294652 0.813278
v -0.009034 1.374392 -0.830340
v -0.005936 1.053989 -1.068987
v -1.006741 1.010023 -1.041625
v -1.014040 1.303491 -0.830340
v 1.006720 0.998768 -1.041625
v 1.011369 1.285033 -0.830340
v 0.000000 -0.940226 0.841387
v 0.000000 -0.789667 1.000000
v -0.990609 -0.789674 1.000000
v -0.990516 -0.940231 0.841387
v 0.991980 -0.789672 1.000000
v 0.991789 -0.940230 0.841387
v 0.000000 -0.940351 -0.871242
v 0.000000 -0.818222 -1.000000
v -0.990282 -0.818228 -1.000000
v -0.990218 -0.940356 -0.871242
v 0.991306 -0.818227 -1.000000
v 0.991174 -0.940354 -0.871242
v 2.035362 0.032025 -0.842675
v 1.880336 0.026662 -0.972449
v 1.880346 0.026668 0.972464
v 2.035372 0.032030 0.842690
v 1.769910 0.512765 -0.917119
v 1.969743 0.527779 -0.794730
v 1.969763 0.527793 0.794795
v 1.769930 0.512779 0.917183
v 2.064614 -0.465782 -0.866548
v 1.909232 -0.465709 -1.000000
v 1.909243 -0.465706 1.000000
v 2.064625 -0.465780 0.866548
v 1.925771 -0.940432 0.000000
v 2.085481 -0.814077 0.000001
v 1.990060 1.364546 0.000118
v 2.148688 1.198978 0.000111
v 1.905855 -0.940842 -0.500000
v 2.061619 -0.814634 -0.500000
v 2.126302 1.091059 -0.499911
v 1.973778 1.253039 -0.499905
v 1.973776 1.253044 0.500095
v 2.126302 1.091064 0.500089
v 2.061625 -0.814633 0.500000
v 1.905860 -0.940841 0.500000
v 2.097198 1.016240 0.735782
v 1.939746 1.146625 0.813278
v 2.084594 0.837834 0.866598
v 1.921078 0.893309 0.971751
v 2.083915 0.855604 -0.866519
v 1.927381 0.906828 -0.965725
v 2.094751 1.010612 -0.752849
v 1.937496 1.140527 -0.830340
v 2.033439 -0.739162 0.866548
v 1.878332 -0.791553 1.000000
v 2.032936 -0.815253 0.786109
v 1.877589 -0.941242 0.841387
v 2.029714 -0.815314 -0.815964
v 1.875032 -0.941257 -0.871242
v 2.030019 -0.767495 -0.866548
v 1.875607 -0.819825 -1.000000
v -1.827068 0.025572 0.972464
v -1.984381 0.031057 0.830732
v -1.827062 0.025567 -0.972449
v -1.984376 0.031052 -0.830717
v -1.749968 0.527568 0.917005
v -1.933303 0.532316 0.783518
v -1.945226 0.531857 -0.783452
v -1.767304 0.527049 -0.908720
v -1.865759 -0.465907 -1.000000
v -2.024078 -0.466237 -0.854252
v -2.024084 -0.466235 0.854252
v -1.865765 -0.465905 1.000000
v -1.874246 -0.940406 0.000000
v -2.035145 -0.802652 0.000001
v -1.933152 1.385913 0.000118
v -2.091422 1.202091 0.000111
v -1.919618 1.269573 -0.499905
v -2.074653 1.089505 -0.499912
v -2.022564 -0.803112 -0.500000
v -1.864027 -0.940782 -0.500000
v -1.864030 -0.940782 0.500000
v -2.022567 -0.803112 0.500000
v -2.074654 1.089511 0.500088
v -1.919617 1.269578 0.500095
v -2.045853 0.838236 0.854303
v -1.879635 0.901678 0.973806
v -2.055664 1.012968 0.728642
v -1.895489 1.156906 0.813278
v -2.054040 1.007038 -0.745709
v -1.893970 1.150442 -0.830340
v -2.045625 0.856182 -0.854223
v -1.881753 0.918030 -0.985938
v -2.007807 -0.803634 0.781016
v -1.849532 -0.941217 0.841387
v -2.008049 -0.734363 0.854252
v -1.849913 -0.791478 1.000000
v -2.006258 -0.762680 -0.854252
v -1.848516 -0.819761 -1.000000
v -2.006120 -0.803689 -0.810871
v -1.848222 -0.941240 -0.871242
vt 0.657163 0.548148
vt 0.657455 0.505201
vt 0.699390 0.507018
vt 0.697517 0.542451
vt 0.692559 0.547426
vt 0.572790 0.076217
vt 0.509516 0.074057
vt 0.517417 0.046504
vt 0.537510 0.031844
vt 0.579836 0.030513
vt 0.116884 0.130838
vt 0.116085 0.177453
vt 0.004628 0.178947
vt 0.007943 0.132357
vt 0.356525 0.601640
vt 0.463329 0.605724
vt 0.462470 0.645340
vt 0.355930 0.644934
vt 0.007875 0.866048
vt 0.004883 0.823198
vt 0.116273 0.824826
vt 0.116999 0.867678
vt 0.115029 0.937337
vt 0.003482 0.935892
vt 0.007528 0.893770
vt 0.116685 0.895341
vt 0.356044 0.760083
vt 0.347730 0.696755
vt 0.449003 0.694749
vt 0.460696 0.759185
vt 0.009961 0.758406
vt 0.119664 0.759776
vt 0.709035 0.237352
vt 0.645975 0.237730
vt 0.641991 0.193899
vt 0.707783 0.194098
vt 0.467084 0.178027
vt 0.461140 0.242758
vt 0.356410 0.242185
vt 0.360041 0.177068
vt 0.496512 0.441003
vt 0.498932 0.373878
vt 0.542541 0.367656
vt 0.538716 0.437337
vt 0.709014 0.076149
vt 0.643255 0.074949
vt 0.648169 0.031241
vt 0.711169 0.033022
vt 0.119388 0.242585
vt 0.009621 0.243740
vt 0.658429 0.438434
vt 0.700847 0.442847
vt 0.753291 0.076224
vt 0.743806 0.034532
vt 0.752939 0.043611
vt 0.238343 0.107488
vt 0.116643 0.108371
vt 0.114894 0.062675
vt 0.238265 0.061850
vt 0.238393 0.868696
vt 0.238439 0.826158
vt 0.359824 0.825101
vt 0.359666 0.867967
vt 0.358400 0.561967
vt 0.466407 0.565202
vt 0.360853 0.937670
vt 0.238308 0.938179
vt 0.238360 0.896246
vt 0.359924 0.895651
vt 0.359972 0.107949
vt 0.360901 0.062226
vt 0.348306 0.305679
vt 0.238854 0.305485
vt 0.238569 0.241213
vt 0.128655 0.696564
vt 0.238781 0.697386
vt 0.238526 0.761330
vt 0.238452 0.176197
vt 0.240253 0.560402
vt 0.239753 0.599614
vt 0.239161 0.645483
vt 0.239265 0.359154
vt 0.120803 0.359550
vt 0.128235 0.305916
vt 0.004616 0.564867
vt 0.119256 0.561781
vt 0.121089 0.601462
vt 0.008786 0.605273
vt 0.113338 0.999014
vt 0.000265 0.997628
vt 0.655864 0.368488
vt 0.699177 0.375116
vt 0.468036 0.936607
vt 0.465818 0.894445
vt 0.121298 0.644864
vt 0.025839 0.695800
vt 0.009771 0.644780
vt 0.009416 0.359606
vt 0.025361 0.306356
vt 0.359800 0.130434
vt 0.238380 0.129883
vt 0.120822 0.398805
vt 0.239743 0.400203
vt 0.240266 0.441715
vt 0.119032 0.440723
vt 0.113229 0.000970
vt 0.238153 0.000125
vt 0.002881 0.501501
vt 0.119131 0.501263
vt 0.358671 0.440606
vt 0.358799 0.501306
vt 0.240848 0.501106
vt 0.469866 0.998375
vt 0.361824 0.999369
vt 0.361787 0.000497
vt 0.571542 0.191140
vt 0.508244 0.191897
vt 0.497197 0.132843
vt 0.570495 0.133648
vt 0.468136 0.063105
vt 0.469866 0.001313
vt 0.599154 0.366323
vt 0.598520 0.435681
vt 0.640311 0.134397
vt 0.538168 0.503615
vt 0.597752 0.503682
vt 0.707239 0.135107
vt 0.541002 0.307034
vt 0.599667 0.295664
vt 0.752086 0.194946
vt 0.752530 0.135577
vt 0.658214 0.307914
vt 0.356878 0.398693
vt 0.750901 0.230850
vt 0.745020 0.236463
vt 0.451825 0.307349
vt 0.463016 0.359146
vt 0.356559 0.359472
vt 0.008665 0.395453
vt 0.004374 0.438130
vt 0.465596 0.131490
vt 0.577732 0.236980
vt 0.533445 0.234727
vt 0.516130 0.221564
vt 0.537227 0.546333
vt 0.597136 0.547557
vt 0.463631 0.395110
vt 0.466711 0.437920
vt 0.500526 0.333248
vt 0.514643 0.314363
vt 0.466794 0.823907
vt 0.505306 0.544753
vt 0.497283 0.536186
vt 0.496511 0.504239
vt 0.238226 0.999875
vt 0.007681 0.109861
vt 0.003303 0.064036
vt 0.467908 0.501567
vt 0.000125 0.002282
vt 0.686533 0.316177
vt 0.699002 0.332787
vt 0.465523 0.866704
vt 0.465796 0.108977
vt 0.646209 0.262603
vt 0.579992 0.267375
vt 0.582816 0.000125
vt 0.648952 0.006387
vt 0.710765 0.261831
vt 0.713473 0.008573
vt 0.777977 0.074370
vt 0.777977 0.135837
vt 0.481295 0.195202
vt 0.470116 0.132546
vt 0.776728 0.197287
vt 0.482661 0.070160
vt 0.496649 0.030886
vt 0.529619 0.007824
vt 0.524915 0.258553
vt 0.495148 0.236877
vt 0.755931 0.012826
vt 0.775155 0.032766
vt 0.772709 0.242291
vt 0.756710 0.258209
vt 0.470392 0.505268
vt 0.470747 0.440899
vt 0.727425 0.376644
vt 0.727425 0.443538
vt 0.470116 0.374616
vt 0.725722 0.508766
vt 0.658566 0.574327
vt 0.596725 0.574278
vt 0.537963 0.278954
vt 0.599872 0.267626
vt 0.661503 0.279885
vt 0.534998 0.572371
vt 0.475747 0.324551
vt 0.499105 0.292330
vt 0.702145 0.294129
vt 0.723741 0.323165
vt 0.493405 0.567935
vt 0.473907 0.548038
vt 0.720442 0.555131
vt 0.703967 0.570918
vn -0.8925 -0.4494 -0.0372
vn -0.9984 -0.0070 -0.0562
vn -0.9007 0.0149 -0.4342
vn -0.8679 -0.2241 -0.4434
vn -0.8642 -0.4606 -0.2024
vn 0.9958 -0.0432 0.0801
vn 0.9487 0.2741 0.1576
vn 0.9055 0.2512 0.3418
vn 0.8415 -0.0807 0.5341
vn 0.8476 -0.0692 0.5261
vn -0.0003 -0.3950 -0.9187
vn 0.0002 0.0274 -0.9996
vn 0.3610 0.0160 -0.9324
vn 0.3258 -0.3851 -0.8634
vn -0.1086 0.7515 0.6507
vn -0.4258 0.6816 0.5950
vn -0.3749 0.1264 0.9184
vn -0.0541 0.1677 0.9843
vn 0.3252 -0.3851 0.8636
vn 0.3607 0.0161 0.9325
vn 0.0002 0.0274 0.9996
vn -0.0003 -0.3948 0.9188
vn -0.0011 -1.0000 -0.0027
vn 0.3373 -0.9411 0.0214
vn 0.3195 -0.8763 0.3606
vn -0.0008 -0.9295 0.3687
vn -0.0020 0.0790 0.9969
vn -0.0087 -0.1025 0.9947
vn -0.2798 -0.0758 0.9570
vn -0.3494 0.1085 0.9307
vn 0.3327 0.1128 0.9362
vn 0.0022 0.0798 0.9968
vn 0.8794 -0.0196 -0.4757
vn 0.8500 0.1214 -0.5126
vn 0.9877 0.0911 -0.1270
vn 0.9931 -0.0541 -0.1035
vn -0.3737 0.0291 -0.9271
vn -0.3455 0.1072 -0.9322
vn -0.0034 0.0812 -0.9967
vn -0.0002 0.0274 -0.9996
vn -0.8752 0.1078 0.4716
vn -0.8680 -0.0854 0.4891
vn -0.9959 -0.0679 0.0595
vn -0.9944 0.0620 0.0853
vn 0.9931 -0.0541 0.1035
vn 0.9877 0.0911 0.1270
vn 0.8500 0.1214 0.5126
vn 0.8792 -0.0196 0.4759
vn 0.0022 0.0798 -0.9968
vn 0.3327 0.1129 -0.9362
vn -0.9950 0.0587 -0.0803
vn -0.8763 0.1021 -0.4707
vn 0.8661 -0.4950 0.0697
vn 0.8386 -0.2633 0.4769
vn 0.8343 -0.4975 0.2375
vn 0.0000 -0.9296 -0.3684
vn -0.0007 -0.9296 -0.3685
vn -0.0011 -1.0000 0.0027
vn 0.0000 -1.0000 0.0032
vn 0.0000 -0.3947 0.9188
vn 0.0000 0.0271 0.9996
vn -0.0002 0.0274 0.9996
vn 0.0003 -0.3948 0.9188
vn -0.1526 0.9138 0.3763
vn -0.4995 0.8151 0.2932
vn 0.0011 -1.0000 -0.0027
vn 0.0000 -1.0000 -0.0032
vn 0.0000 -0.9296 0.3686
vn 0.0008 -0.9295 0.3687
vn 0.0007 -0.9296 -0.3685
vn 0.0011 -1.0000 0.0027
vn -0.0067 -0.0893 -0.9960
vn -0.0007 -0.1109 -0.9938
vn 0.0001 0.0771 -0.9970
vn 0.0080 -0.1008 0.9949
vn -0.0008 -0.1337 0.9910
vn 0.0001 0.0770 0.9970
vn 0.0000 0.0271 -0.9996
vn 0.0103 0.9127 0.4084
vn 0.0069 0.7517 0.6594
vn 0.0016 0.1557 0.9878
vn 0.0018 0.1734 -0.9848
vn 0.0502 0.1781 -0.9827
vn 0.0068 -0.0833 -0.9965
vn 0.4729 0.8313 0.2921
vn 0.1526 0.9175 0.3672
vn 0.1089 0.7566 0.6448
vn 0.3998 0.6941 0.5986
vn -0.0013 -1.0000 0.0000
vn 0.3374 -0.9413 0.0000
vn -0.9963 -0.0660 -0.0549
vn -0.8747 -0.0844 -0.4773
vn -0.3513 -0.9362 0.0107
vn -0.3379 -0.8721 0.3539
vn 0.0534 0.1687 0.9842
vn 0.2444 -0.0620 0.9677
vn 0.3532 0.1299 0.9265
vn 0.3549 0.1314 -0.9256
vn 0.2444 -0.0514 -0.9683
vn 0.0003 -0.3950 -0.9187
vn 0.0000 -0.3948 -0.9187
vn 0.1068 0.7522 -0.6502
vn 0.0069 0.7477 -0.6640
vn 0.0103 0.9124 -0.4091
vn 0.1520 0.9174 -0.3678
vn 0.0000 -1.0000 0.0000
vn 0.4876 0.8730 0.0000
vn 0.1786 0.9839 0.0000
vn -0.1520 0.9137 -0.3769
vn -0.1785 0.9839 0.0000
vn 0.0116 0.9999 0.0000
vn -0.3511 -0.9363 0.0000
vn 0.0013 -1.0000 0.0000
vn 0.9957 -0.0425 -0.0824
vn 0.9481 0.2746 -0.1599
vn 0.9408 0.3389 0.0000
vn 0.9997 -0.0249 0.0000
vn -0.3515 -0.9361 -0.0108
vn -0.9985 -0.0543 0.0000
vn -0.9989 0.0471 0.0000
vn 0.9964 0.0847 0.0000
vn -0.9984 -0.0070 0.0562
vn -0.9999 -0.0154 0.0000
vn 0.9977 -0.0675 0.0000
vn -0.9520 0.2699 0.1441
vn -0.9436 0.3311 0.0000
vn 0.8662 -0.4947 -0.0698
vn 0.8637 -0.5040 0.0000
vn -0.9511 0.2734 -0.1437
vn -0.1048 0.7512 -0.6517
vn 0.8347 -0.4969 -0.2372
vn 0.8390 -0.2631 -0.4761
vn -0.2908 -0.0762 -0.9537
vn -0.3751 0.1310 -0.9176
vn -0.0470 0.1769 -0.9831
vn 0.3956 0.6918 -0.6041
vn 0.4725 0.8313 -0.2926
vn -0.3444 -0.3769 -0.8598
vn 0.8468 -0.0629 -0.5282
vn 0.8392 -0.0756 -0.5385
vn 0.9034 0.2507 -0.3477
vn -0.8925 -0.4495 0.0371
vn -0.8908 -0.4544 0.0000
vn -0.4274 0.6853 -0.5896
vn -0.4990 0.8153 -0.2937
vn -0.8560 -0.0783 0.5110
vn -0.9148 0.2410 0.3242
vn -0.3736 0.0291 0.9271
vn -0.8639 -0.4610 0.2026
vn -0.8676 -0.2241 0.4438
vn -0.9006 0.0149 0.4343
vn 0.3201 -0.8761 -0.3604
vn 0.3376 -0.9410 -0.0215
vn -0.5167 0.8561 0.0000
vn -0.9160 0.2485 -0.3148
vn -0.8634 -0.0652 -0.5003
vn -0.3440 -0.3769 0.8600
vn -0.3383 -0.8720 -0.3538
g Bread_bread_Material.001
usemtl Material.001
s 1
f 137/1/1 33/2/2 128/3/3 155/4/4 157/5/5
f 44/6/6 100/7/7 103/8/8 105/9/9 85/10/10
f 77/11/11 15/12/12 88/13/13 118/14/14
f 58/15/15 146/16/16 144/17/17 57/18/18
f 112/19/19 89/20/20 18/21/21 71/22/22
f 51/23/23 102/24/24 114/25/25 72/26/26
f 7/27/27 8/28/28 123/29/29 119/30/30
f 89/20/20 81/31/31 16/32/32 18/21/21
f 87/33/33 79/34/34 34/35/35 36/36/36
f 127/37/37 121/38/38 10/39/39 12/40/40
f 120/41/41 124/42/42 53/43/43 52/44/44
f 45/45/45 43/46/46 82/47/47 90/48/48
f 15/12/12 13/49/49 80/50/50 88/13/13
f 33/2/2 31/51/51 122/52/52 128/3/3
f 101/53/53 45/45/45 90/48/48 111/54/54 113/55/55
f 73/56/56 78/57/57 42/58/58 38/59/59
f 68/60/60 6/61/61 9/62/62 69/63/63
f 49/64/64 142/65/65 146/16/16 58/15/15
f 48/66/66 47/67/67 67/68/68 70/69/69
f 76/70/70 73/56/56 38/59/59 39/71/71
f 10/39/39 11/72/72 4/73/73 2/74/74
f 16/32/32 17/75/75 3/76/76 1/77/77
f 12/40/40 10/39/39 2/74/74 5/78/78
f 18/21/21 16/32/32 1/77/77 6/61/61
f 46/79/79 49/64/64 58/15/15 55/80/80
f 3/76/76 56/81/81 57/18/18 8/28/28
f 4/73/73 62/82/82 65/83/83 14/84/84
f 99/85/85 50/86/86 60/87/87 104/88/88
f 30/89/89 91/90/90 102/24/24 51/23/23
f 8/28/28 57/18/18 144/17/17 123/29/29
f 31/51/51 32/91/91 125/92/92 122/52/52
f 139/93/93 48/66/66 70/69/69 152/94/94
f 47/67/67 51/23/23 72/26/26 67/68/68
f 1/77/77 3/76/76 8/28/28 7/27/27
f 6/61/61 1/77/77 7/27/27 9/62/62
f 50/86/86 46/79/79 55/80/80 60/87/87
f 17/75/75 59/95/95 56/81/81 3/76/76
f 86/96/96 106/97/97 59/95/95 17/75/75
f 14/84/84 65/83/83 108/98/98 83/99/99
f 43/46/46 44/6/6 85/10/10 82/47/47
f 104/88/88 60/87/87 59/95/95 106/97/97
f 75/100/100 12/40/40 5/78/78 74/101/101
f 2/74/74 4/73/73 14/84/84 13/49/49
f 5/78/78 2/74/74 13/49/49 15/12/12
f 71/22/22 18/21/21 6/61/61 68/60/60
f 66/102/102 61/103/103 37/104/104 41/105/105
f 38/59/59 42/58/58 30/106/89 26/107/106
f 93/108/107 29/109/108 50/86/86 99/85/85
f 37/104/104 40/110/109 28/111/110 25/112/111
f 131/113/112 27/114/113 48/66/66 139/93/93
f 39/71/71 38/59/59 26/107/106 27/115/113
f 41/105/105 37/104/104 25/112/111 29/109/108
f 35/116/114 97/117/115 94/118/116 21/119/117
f 138/120/118 39/71/71 27/115/113 131/121/112
f 52/44/44 53/43/43 22/122/119 20/123/120
f 34/35/35 35/116/114 21/119/117 19/124/121
f 54/125/122 52/44/44 20/123/120 23/126/123
f 36/36/36 34/35/35 19/124/121 24/127/124
f 53/43/43 141/128/125 134/129/126 22/122/119
f 96/130/127 36/36/36 24/127/124 92/131/128
f 21/119/117 94/118/116 100/7/7 44/6/6
f 22/122/119 134/129/126 136/132/129 32/91/91
f 61/103/103 64/133/130 40/110/109 37/104/104
f 115/134/131 117/135/132 87/33/33 36/36/36 96/130/127
f 126/136/133 150/137/134 63/138/135 11/72/72
f 81/31/31 86/96/96 17/75/75 16/32/32
f 13/49/49 14/84/84 83/99/99 80/50/50
f 110/139/136 66/102/102 41/105/105 98/140/137
f 156/141/138 127/37/37 12/40/40 75/100/100
f 11/72/72 63/138/135 62/82/82 4/73/73
f 84/142/139 107/143/140 109/144/141 97/117/115 35/116/114
f 74/101/101 5/78/78 15/12/12 77/11/11
f 140/145/142 54/125/122 23/126/123 132/146/143
f 20/123/120 22/122/119 32/91/91 31/51/51
f 23/126/123 20/123/120 31/51/51 33/2/2
f 64/133/130 148/147/144 135/148/145 40/110/109
f 124/42/42 143/149/146 145/150/147 141/128/125 53/43/43
f 9/62/62 7/27/27 119/30/30 130/151/148
f 121/38/38 126/136/133 11/72/72 10/39/39
f 151/152/149 153/153/150 129/154/151 54/125/122 140/145/142
f 26/155/106 30/89/89 51/23/23 47/67/67
f 78/57/57 116/156/152 95/157/153 42/58/58
f 25/112/111 28/111/110 49/64/64 46/79/79
f 28/111/110 133/158/154 142/65/65 49/64/64
f 27/114/113 26/155/106 47/67/67 48/66/66
f 29/109/108 25/112/111 46/79/79 50/86/86
f 42/58/58 95/157/153 91/159/90 30/106/89
f 19/124/121 21/119/117 44/6/6 43/46/46
f 24/127/124 19/124/121 43/46/46 45/45/45
f 40/110/109 135/148/145 133/158/154 28/111/110
f 92/131/128 24/127/124 45/45/45 101/53/53
f 98/140/137 41/105/105 29/109/108 93/108/107
f 148/147/144 64/133/130 63/138/135 150/137/134
f 60/87/87 55/80/80 56/81/81 59/95/95
f 55/80/80 58/15/15 57/18/18 56/81/81
f 66/102/102 110/139/136 108/98/98 65/83/83
f 32/91/91 136/132/129 147/160/155 149/161/156 125/92/92
f 72/26/26 114/25/25 112/19/19 71/22/22
f 64/133/130 61/103/103 62/82/82 63/138/135
f 152/94/94 70/69/69 69/63/63 154/162/157
f 61/103/103 66/102/102 65/83/83 62/82/82
f 158/163/158 76/70/70 39/71/71 138/120/118
f 116/156/152 78/57/57 77/11/11 118/14/14
f 70/69/69 67/68/68 68/60/60 69/63/63
f 76/70/70 158/163/158 156/141/138 75/100/100
f 67/68/68 72/26/26 71/22/22 68/60/60
f 132/146/143 23/126/123 33/2/2 137/1/1
f 78/57/57 73/56/56 74/101/101 77/11/11
f 73/56/56 76/70/70 75/100/100 74/101/101
f 69/63/63 9/62/62 130/151/148 154/162/157
f 84/142/139 79/34/34 80/164/50 83/165/99
f 86/166/96 81/167/31 82/47/47 85/10/10
f 79/34/34 87/33/33 88/168/13 80/164/50
f 81/167/31 89/169/20 90/48/48 82/47/47
f 102/170/24 91/171/90 92/131/128 101/53/53
f 98/172/137 93/173/107 94/118/116 97/117/115
f 91/171/90 95/174/153 96/130/127 92/131/128
f 93/173/107 99/175/85 100/7/7 94/118/116
f 105/9/9 103/8/8 104/176/88 106/177/97
f 103/8/8 100/7/7 99/175/85 104/176/88
f 106/177/97 86/166/96 85/10/10 105/9/9
f 109/144/141 107/143/140 108/178/98 110/179/136
f 97/117/115 109/144/141 110/179/136 98/172/137
f 107/143/140 84/142/139 83/165/99 108/178/98
f 113/55/55 111/54/54 112/180/19 114/181/25
f 111/54/54 90/48/48 89/169/20 112/180/19
f 101/53/53 113/55/55 114/181/25 102/170/24
f 117/135/132 115/134/131 116/182/152 118/183/14
f 95/174/153 116/182/152 115/134/131 96/130/127
f 118/183/14 88/168/13 87/33/33 117/135/132
f 79/34/34 84/142/139 35/116/114 34/35/35
f 130/184/148 119/185/30 120/41/41 129/154/151
f 126/186/133 121/187/38 122/52/52 125/92/92
f 119/185/30 123/188/29 124/42/42 120/41/41
f 121/187/38 127/189/37 128/3/3 122/52/52
f 138/190/118 131/191/112 132/146/143 137/1/1
f 142/192/65 133/193/154 134/129/126 141/128/125
f 133/193/154 135/194/145 136/132/129 134/129/126
f 131/191/112 139/195/93 140/145/142 132/146/143
f 145/150/147 143/149/146 144/196/17 146/197/16
f 123/188/29 144/196/17 143/149/146 124/42/42
f 146/197/16 142/192/65 141/128/125 145/150/147
f 149/161/156 147/160/155 148/198/144 150/199/134
f 147/160/155 136/132/129 135/194/145 148/198/144
f 150/199/134 126/186/133 125/92/92 149/161/156
f 153/153/150 151/152/149 152/200/94 154/201/157
f 139/195/93 152/200/94 151/152/149 140/145/142
f 154/201/157 130/184/148 129/154/151 153/153/150
f 157/5/5 155/4/4 156/202/138 158/203/158
f 155/4/4 128/3/3 127/189/37 156/202/138
f 137/1/1 157/5/5 158/203/158 138/190/118
f 129/154/151 120/41/41 52/44/44 54/125/122
