# Blender v2.81 (sub 16) OBJ File: 'breadloaf.blend'
# www.blender.org
mtllib breadslice.mtl
o Bread.001_bread.001
v 0.970893 -0.301652 -0.160090
v -0.974020 -0.301673 -0.160090
v 0.854776 0.198913 -0.158272
v -0.850966 0.198867 -0.158272
v -1.001570 -0.752342 -0.160385
v 0.998429 -0.752339 -0.160385
v -0.001452 1.150674 -0.141242
v -0.001571 -1.172815 -0.160385
v -0.501476 1.047597 -0.148521
v -0.501570 -1.173768 -0.160385
v 0.498524 1.047610 -0.148521
v 0.498430 -1.173767 -0.160385
v 0.811707 0.874458 -0.152277
v 0.925317 0.560532 -0.155262
v -0.831911 0.864183 -0.152483
v -0.947118 0.581898 -0.155193
v 0.832613 -1.154121 -0.152914
v 0.983386 -1.016456 -0.160385
v -0.850797 -1.157699 -0.157900
v -0.985795 -1.022281 -0.156754
v 0.970893 -0.301652 0.188279
v -0.974020 -0.301673 0.188279
v 0.854776 0.198913 0.190098
v -0.850966 0.198867 0.190098
v -1.001570 -0.752342 0.187985
v 0.998429 -0.752339 0.187985
v -0.001452 1.150674 0.207128
v -0.001570 -1.172815 0.187985
v -0.501476 1.047597 0.199848
v -0.501570 -1.173768 0.187985
v 0.498524 1.047610 0.199848
v 0.498430 -1.173767 0.187985
v 0.811707 0.874458 0.196093
v 0.925317 0.560532 0.193108
v -0.831911 0.864183 0.195887
v -0.947118 0.581898 0.193176
v 0.832613 -1.154121 0.195455
v 0.983386 -1.016456 0.187985
v -0.850797 -1.157699 0.190469
v -0.987257 -1.022281 0.195247
v -0.001485 0.571315 0.193143
v -0.001528 -0.301513 0.190561
v -0.001527 -0.302159 -0.153299
v -0.000659 0.569793 -0.146203
vt 0.806530 0.422207
vt 0.806530 0.482706
vt 0.763385 0.482706
vt 0.763385 0.422207
vt 0.851896 0.521327
vt 0.852382 0.556452
vt 0.809238 0.556446
vt 0.808752 0.521322
vt 0.851912 0.402277
vt 0.851002 0.464827
vt 0.807858 0.464821
vt 0.808768 0.402272
vt 0.852382 0.361014
vt 0.809238 0.361009
vt 0.882857 0.552976
vt 0.882705 0.515712
vt 0.925848 0.515543
vt 0.926001 0.552808
vt 0.882505 0.457930
vt 0.882469 0.394054
vt 0.925613 0.393886
vt 0.925649 0.457762
vt 0.882477 0.091157
vt 0.883389 0.050748
vt 0.926533 0.050761
vt 0.925621 0.091170
vt 0.883065 0.262259
vt 0.882699 0.214252
vt 0.925843 0.214265
vt 0.926209 0.262272
vt 0.806530 0.543205
vt 0.763385 0.543205
vt 0.806529 0.584512
vt 0.763385 0.584512
vt 0.882495 0.149177
vt 0.925639 0.149190
vt 0.806530 0.377287
vt 0.763385 0.377287
vt 0.883389 0.299911
vt 0.926533 0.299924
vt 0.882649 0.346919
vt 0.882857 0.307514
vt 0.926001 0.307346
vt 0.925793 0.346751
vt 0.806529 0.603704
vt 0.763385 0.603704
vt 0.599102 0.712937
vt 0.471520 0.713704
vt 0.498591 0.673479
vt 0.537491 0.651406
vt 0.599496 0.634763
vt 0.857087 0.859603
vt 0.857584 0.937964
vt 0.795579 0.921323
vt 0.756679 0.899251
vt 0.729609 0.859026
vt 0.598537 0.825136
vt 0.597972 0.937139
vt 0.536049 0.936960
vt 0.493769 0.936921
vt 0.474213 0.919775
vt 0.474402 0.882488
vt 0.478107 0.824571
vt 0.718974 0.825744
vt 0.722091 0.883691
vt 0.721886 0.924206
vt 0.705869 0.937966
vt 0.659894 0.937562
vt 0.722091 0.712174
vt 0.661335 0.652010
vt 0.702137 0.675788
vt 0.706797 0.761340
vt 0.490933 0.760286
vt 0.977062 0.746986
vt 0.856624 0.747513
vt 0.856060 0.635590
vt 0.917982 0.635167
vt 0.963957 0.634763
vt 0.979973 0.648517
vt 0.980180 0.689038
vt 0.980180 0.860556
vt 0.960226 0.896941
vt 0.919423 0.920720
vt 0.736196 0.748159
vt 0.732491 0.690242
vt 0.732301 0.652954
vt 0.751858 0.635808
vt 0.794137 0.635769
vt 0.964885 0.811390
vt 0.749022 0.812444
vt 0.805630 0.361708
vt 0.762486 0.361708
vn -0.0139 -0.7104 -0.7036
vn -0.0001 -0.7057 -0.7085
vn 0.0004 -0.7066 0.7075
vn -0.0152 -0.7132 0.7008
vn -0.2498 0.6950 -0.6742
vn -0.5702 0.5140 -0.6408
vn -0.5791 0.5027 0.6417
vn -0.2607 0.6863 0.6790
vn 0.2491 0.6951 -0.6743
vn 0.0000 0.7523 -0.6588
vn -0.0000 0.7394 0.6732
vn 0.2599 0.6865 0.6791
vn 0.5824 0.5047 -0.6372
vn 0.5909 0.4937 0.6380
vn 0.6982 -0.3274 -0.6366
vn 0.7188 0.0029 -0.6952
vn 0.7201 0.0018 0.6938
vn 0.7024 -0.3376 0.6266
vn 0.7149 0.1074 -0.6909
vn 0.7452 0.0183 -0.6665
vn 0.7495 0.0099 0.6619
vn 0.7181 0.1033 0.6882
vn -0.7174 0.0043 -0.6966
vn -0.7057 -0.3143 -0.6349
vn -0.7014 -0.3144 0.6396
vn -0.7230 0.0014 0.6908
vn -0.7609 0.0573 -0.6464
vn -0.7511 0.0033 -0.6601
vn -0.7551 -0.0052 0.6555
vn -0.7648 0.0488 0.6424
vn 0.0180 -0.7107 -0.7032
vn 0.0209 -0.7162 0.6975
vn 0.3012 -0.7135 -0.6326
vn 0.2961 -0.7036 0.6459
vn -0.7156 0.1127 -0.6894
vn -0.7185 0.1080 0.6870
vn -0.3098 -0.7075 -0.6352
vn -0.3148 -0.7080 0.6321
vn 0.7532 0.0620 -0.6548
vn 0.7573 0.0531 0.6509
vn 0.0000 -0.0105 0.9999
vn 0.0000 0.0066 -1.0000
vn 0.0003 -0.0020 1.0000
vn -0.0001 0.0047 -1.0000
g Bread.001_bread.001_bread_mat
usemtl bread_mat
s 1
f 10/1/1 8/2/2 28/3/3 30/4/4
f 9/5/5 15/6/6 35/7/7 29/8/8
f 11/9/9 7/10/10 27/11/11 31/12/12
f 13/13/13 11/9/9 31/12/12 33/14/14
f 18/15/15 6/16/16 26/17/17 38/18/18
f 1/19/19 3/20/20 23/21/21 21/22/22
f 5/23/23 20/24/24 40/25/25 25/26/26
f 16/27/27 4/28/28 24/29/29 36/30/30
f 8/2/2 12/31/31 32/32/32 28/3/3
f 12/31/31 17/33/33 37/34/34 32/32/32
f 2/35/35 5/23/23 25/26/26 22/36/36
f 7/10/10 9/5/5 29/8/8 27/11/11
f 19/37/37 10/1/1 30/4/4 39/38/38
f 15/39/6 16/27/27 36/30/30 35/40/7
f 6/16/16 1/19/19 21/22/22 26/17/17
f 14/41/39 13/42/13 33/43/14 34/44/40
f 17/33/33 18/45/15 38/46/18 37/34/34
f 3/20/20 14/41/39 34/44/40 23/21/21
f 4/28/28 2/35/35 22/36/36 24/29/29
f 41/47/41 34/48/40 33/49/14 31/50/12 27/51/11
f 44/52/42 7/53/10 11/54/9 13/55/13 14/56/39
f 42/57/43 28/58/3 32/59/32 37/60/34 38/61/18 26/62/17 21/63/22
f 22/64/36 25/65/26 40/66/25 39/67/38 30/68/4 28/58/3 42/57/43
f 36/69/30 41/47/41 27/51/11 29/70/8 35/71/7
f 24/72/29 22/64/36 42/57/43 41/47/41 36/69/30
f 41/47/41 42/57/43 21/63/22 23/73/21 34/48/40
f 2/74/35 43/75/44 8/76/2 10/77/1 19/78/37 20/79/24 5/80/23
f 16/81/27 15/82/6 9/83/5 7/53/10 44/52/42
f 8/76/2 43/75/44 1/84/19 6/85/16 18/86/15 17/87/33 12/88/31
f 4/89/28 16/81/27 44/52/42 43/75/44 2/74/35
f 43/75/44 44/52/42 14/56/39 3/90/20 1/84/19
f 20/91/24 19/37/37 39/38/38 40/92/25
